<?xml version="1.0" encoding="UTF-8" standalone="no"?>
<!-- Created with Inkscape (http://www.inkscape.org/) -->

<svg
   width="61.8358mm"
   height="50.66666mm"
   viewBox="0 0 61.8358 50.66666"
   version="1.1"
   id="svg5"
   xml:space="preserve"
   inkscape:export-filename="Angler_Test.png"
   inkscape:export-xdpi="96"
   inkscape:export-ydpi="96"
   inkscape:version="1.2.2 (732a01da63, 2022-12-09)"
   sodipodi:docname="Angler Logo.svg"
   xmlns:inkscape="http://www.inkscape.org/namespaces/inkscape"
   xmlns:sodipodi="http://sodipodi.sourceforge.net/DTD/sodipodi-0.dtd"
   xmlns="http://www.w3.org/2000/svg"
   xmlns:svg="http://www.w3.org/2000/svg"><sodipodi:namedview
     id="namedview7"
     pagecolor="#ffffff"
     bordercolor="#111111"
     borderopacity="1"
     inkscape:showpageshadow="0"
     inkscape:pageopacity="0"
     inkscape:pagecheckerboard="1"
     inkscape:deskcolor="#d1d1d1"
     inkscape:document-units="mm"
     showgrid="false"
     inkscape:zoom="0.69977474"
     inkscape:cx="400.84327"
     inkscape:cy="564.46736"
     inkscape:window-width="1920"
     inkscape:window-height="1017"
     inkscape:window-x="-8"
     inkscape:window-y="-8"
     inkscape:window-maximized="1"
     inkscape:current-layer="layer1"><inkscape:page
       x="0"
       y="0"
       width="61.8358"
       height="50.66666"
       id="page2"
       margin="0"
       bleed="0" /></sodipodi:namedview><defs
     id="defs2" /><g
     inkscape:label="Layer 1"
     inkscape:groupmode="layer"
     id="layer1"
     transform="translate(-82.813958,-125.70671)"><path
       style="fill:#07c3e8;fill-opacity:1;stroke-width:0.264583"
       d="m 121.51793,176.12451 c -2.889,-0.47443 -5.89036,-1.37641 -8.73125,-2.62395 -2.53201,-1.1119 -3.21217,-1.24605 -9.69661,-1.91242 -4.446903,-0.45698 -6.700659,-0.93291 -7.311775,-1.54402 -0.334224,-0.33423 -0.30331,-0.43431 0.242922,-0.78643 0.859602,-0.55413 4.352843,-1.23514 6.369413,-1.24172 2.19394,-0.007 8.66128,-0.64249 11.98355,-1.17723 5.50813,-0.88658 5.99961,-2.19803 1.19887,-3.19901 -4.65449,-0.97049 -19.12492,-1.96918 -20.202001,-1.39425 -0.31682,0.1691 -1.549723,1.20528 -2.739784,2.3026 -3.497138,3.22463 -8.617773,6.15909 -9.393663,5.3832 -0.150689,-0.15069 0.02429,-1.30622 0.453675,-2.99582 0.623197,-2.4523 0.714349,-3.41031 0.840703,-8.83593 0.163806,-7.03361 -0.121108,-10.56512 -1.175917,-14.57555 -0.605432,-2.30189 -0.667636,-2.81367 -0.364736,-3.00087 1.242285,-0.76778 5.614874,2.14137 9.87583,6.57053 1.413531,1.46933 2.782749,2.66903 3.042708,2.66599 0.259955,-0.003 1.544211,-1.04484 2.853899,-2.31511 2.913966,-2.82626 4.117616,-3.80145 7.011456,-5.68066 3.7421,-2.43004 9.67822,-5.10746 12.47496,-5.62669 0.85162,-0.15811 1.0196,-0.32471 1.42328,-1.41158 1.70968,-4.60313 4.7247,-7.58832 8.71308,-8.62689 3.08781,-0.80406 6.43497,-0.35628 9.02051,1.20676 3.49581,2.11333 5.13799,5.68385 5.14326,11.18283 0.002,2.00666 0.0364,2.12264 0.92132,3.10219 0.50563,0.55967 0.99499,1.31902 1.08746,1.68745 0.44452,1.77113 -0.79593,3.81982 -2.61736,4.32274 -1.88197,0.51964 -3.91051,-0.54024 -4.44437,-2.32211 -0.43866,-1.4641 -0.10914,-2.76321 0.96564,-3.80703 l 0.91431,-0.88796 v -3.03411 c 0,-3.73824 -0.41141,-5.26711 -1.86027,-6.9131 -1.60491,-1.82327 -3.42508,-2.60906 -6.13003,-2.64638 -1.74937,-0.0241 -2.46101,0.0895 -3.498,0.55874 -2.13093,0.96419 -3.46171,2.24184 -4.503,4.32325 -1.27426,2.54711 -1.24768,2.76155 0.36896,2.976 2.8825,0.38238 5.08962,1.59742 6.06985,3.34151 0.74007,1.31676 0.58003,1.93019 -1.44756,5.54859 -3.22078,5.74773 -3.76807,7.72602 -2.7083,9.78958 0.50427,0.98187 0.913,1.34182 2.33126,2.05298 0.94589,0.4743 2.36071,0.98024 3.14406,1.12431 1.26174,0.23206 1.52792,0.19788 2.33282,-0.29957 l 0.90856,-0.56152 0.77603,0.74348 0.77603,0.74349 0.75513,-0.72346 0.75513,-0.72346 0.4416,0.67396 c 0.24288,0.37068 0.54115,0.67396 0.66284,0.67396 0.12169,0 0.74402,-0.41556 1.38296,-0.92347 0.63895,-0.50792 1.3123,-0.92464 1.49634,-0.92605 0.73115,-0.006 1.38316,1.6565 1.38418,3.52859 0.001,2.2414 -0.51377,4.09212 -2.01751,7.25024 -2.05179,4.30913 -5.57457,7.37723 -9.86685,8.59336 -2.26967,0.64306 -6.69233,0.8169 -9.41361,0.37002 z m -0.38934,-29.40928 c 1.84683,-1.76938 1.42391,-4.66293 -0.85366,-5.84071 -2.40502,-1.24368 -5.5128,1.00539 -5.11082,3.69865 0.30866,2.06804 1.67871,3.15581 3.77999,3.00117 1.09114,-0.0803 1.56687,-0.26739 2.18449,-0.85911 z"
       id="path3675" /></g></svg>
